<?xml version="1.0" encoding="iso-8859-1"?>
<!-- Generator: Adobe Illustrator 21.0.0, SVG Export Plug-In . SVG Version: 6.00 Build 0)  -->
<svg version="1.0" id="grade" xmlns="http://www.w3.org/2000/svg" xmlns:xlink="http://www.w3.org/1999/xlink" x="0px" y="0px"
	 viewBox="0 0 589.463 134" style="enable-background:new 0 0 589.463 134;" xml:space="preserve">
<g>
	<g>
		<path d="M109.169,128.594c-21.289,0-41.139-11.461-51.804-29.911c-1.658-2.869-0.678-6.539,2.191-8.197
			c2.87-1.658,6.541-0.676,8.197,2.191c8.528,14.753,24.397,23.917,41.415,23.917c12.252,0,23.903-4.63,32.808-13.037
			c2.408-2.276,6.208-2.166,8.482,0.243c2.275,2.409,2.166,6.207-0.243,8.481C139.073,122.801,124.496,128.594,109.169,128.594z"/>
	</g>
	<path d="M31.389,36.273h36c3.314,0,6,2.686,6,6l0,0c0,3.314-2.686,6-6,6h-36c-3.314,0-6-2.686-6-6l0,0
		C25.389,38.96,28.076,36.273,31.389,36.273z"/>
	<path d="M151.026,26.091c-10.843-10.632-25.059-16.639-40.184-17.053c-0.221-0.025-0.445-0.04-0.673-0.04h-0.99c0,0-0.007,0-0.01,0
		l-0.005,0H15.93c-3.314,0-6,2.686-6,6c0,3.314,2.686,6,6,6h93.249c12.584,0.003,24.462,4.855,33.447,13.662
		c1.168,1.145,2.685,1.716,4.2,1.716c1.555,0,3.109-0.602,4.284-1.8C153.43,32.209,153.392,28.41,151.026,26.091z"/>
	<path d="M46.473,63.096h14.917c3.314,0,6,2.686,6,6l0,0c0,3.314-2.686,6-6,6H46.473c-3.314,0-6-2.686-6-6l0,0
		C40.473,65.782,43.159,63.096,46.473,63.096z"/>
	<path d="M130.352,72.958c-1.375-2.29-3.635-4.222-6.72-5.742c-2.906-1.432-6.83-2.696-12-3.866
		c-3.206-0.714-5.674-1.447-7.337-2.179c-1.808-0.795-2.635-1.552-3.01-2.045c-0.473-0.625-0.713-1.527-0.713-2.682
		c0-1.949,0.723-3.403,2.276-4.577c1.706-1.29,4.071-1.944,7.032-1.944c2.419,0,4.443,0.327,6.013,0.971
		c1.684,0.692,3.505,1.679,5.411,2.933c2.137,1.55,3.757,2.272,5.097,2.272c1.394,0,2.648-0.596,3.627-1.725
		c0.914-1.057,1.397-2.399,1.397-3.881c0-2.667-1.546-5.14-4.629-7.374c-2.217-1.542-4.79-2.752-7.646-3.596
		c-2.838-0.837-5.81-1.262-8.833-1.262c-4.211,0-8.048,0.78-11.403,2.318c-3.421,1.57-6.148,3.766-8.105,6.529
		c-2.005,2.829-3.021,6.121-3.021,9.784c0,4.756,1.647,8.59,4.894,11.394c3.062,2.648,7.865,4.67,14.691,6.181
		c3.674,0.799,6.474,1.578,8.322,2.316c2.019,0.806,2.911,1.564,3.303,2.056c0.496,0.626,0.738,1.491,0.738,2.644
		c0,1.96-0.737,3.352-2.319,4.381c-1.84,1.197-4.56,1.803-8.083,1.803c-2.957,0-5.43-0.355-7.347-1.056
		c-2.001-0.731-4.056-1.741-6.107-3.001c-2.054-1.369-3.62-2.007-4.926-2.007c-1.469,0-2.744,0.579-3.686,1.674
		c-0.889,1.034-1.339,2.319-1.339,3.82c0,1.57,0.406,2.949,1.206,4.098c0.7,1.007,1.789,2.008,3.326,3.06l0.05,0.033
		c2.497,1.603,5.393,2.859,8.609,3.734c3.187,0.867,6.586,1.306,10.104,1.306c6.762,0,12.325-1.591,16.535-4.729
		c4.414-3.29,6.652-7.703,6.652-13.117C132.41,78.107,131.718,75.239,130.352,72.958z"/>
	<path d="M185.903,43.16c-1.068-1.131-2.53-1.71-4.345-1.721c-0.016,0-0.032,0-0.049,0c-1.778,0-3.237,0.552-4.338,1.641
		c-1.113,1.1-1.681,2.535-1.69,4.265l-0.144,25.286c-0.024,4.24-1.198,7.524-3.59,10.04c-2.34,2.462-5.357,3.659-9.223,3.659
		c-0.035,0-0.071,0-0.107,0c-3.327-0.019-5.64-0.853-7.071-2.552c-1.483-1.758-2.223-4.683-2.201-8.693l0.159-27.867
		c0.009-1.714-0.517-3.144-1.562-4.252c-1.068-1.132-2.53-1.71-4.344-1.721c-1.809-0.014-3.277,0.542-4.387,1.641
		c-1.113,1.1-1.681,2.535-1.69,4.265l-0.16,28.072c-0.039,6.972,1.617,12.374,4.92,16.056c3.349,3.735,8.339,5.648,14.831,5.684
		c0.048,0,0.096,0.001,0.145,0.001c3.817,0,7.314-0.855,10.397-2.542c1.479-0.809,2.812-1.799,3.993-2.962
		c0.064,1.507,0.596,2.775,1.584,3.774c1.065,1.077,2.483,1.629,4.213,1.638c0.017,0,0.033,0,0.05,0
		c1.792,0,3.244-0.562,4.316-1.671c1.057-1.095,1.598-2.485,1.608-4.132l0.248-43.657C187.474,45.698,186.948,44.268,185.903,43.16
		L185.903,43.16z"/>
	<path d="M232.814,45.158l-0.001-0.001c-3.643-2.408-7.893-3.642-12.633-3.669c-4.255-0.026-7.998,0.907-11.202,2.767
		c-1.471,0.854-2.789,1.88-3.948,3.071c-0.035-1.614-0.559-2.969-1.559-4.031c-1.068-1.131-2.53-1.711-4.346-1.721
		c-0.016,0-0.032,0-0.048,0c-1.777,0-3.236,0.552-4.338,1.641c-1.112,1.099-1.681,2.534-1.691,4.265l-0.353,62.234
		c-0.009,1.663,0.544,3.07,1.643,4.18c1.1,1.112,2.569,1.68,4.368,1.69c0.017,0,0.033,0,0.05,0c1.775,0,3.217-0.535,4.285-1.59
		c1.077-1.065,1.628-2.482,1.638-4.213l0.105-18.453c1.144,1.202,2.449,2.242,3.909,3.111c3.181,1.896,6.94,2.87,11.172,2.894
		c0.056,0,0.111,0,0.166,0c4.734,0,8.953-1.148,12.543-3.413c3.622-2.286,6.484-5.559,8.506-9.728
		c1.99-4.103,3.014-8.961,3.045-14.439c0.032-5.471-0.936-10.372-2.876-14.566C239.28,50.933,236.441,47.558,232.814,45.158z
		 M228.244,82.558c-2.36,2.87-5.615,4.273-9.972,4.228c-4.344-0.024-7.568-1.456-9.857-4.376c-2.359-3.006-3.538-7.408-3.507-13.085
		c0.032-5.673,1.259-10.042,3.649-12.985c2.302-2.839,5.507-4.22,9.798-4.22c0.037,0,0.076,0,0.114,0
		c4.339,0.025,7.578,1.488,9.904,4.474c2.396,3.076,3.594,7.48,3.562,13.09C231.904,75.285,230.661,79.616,228.244,82.558
		L228.244,82.558z"/>
	<path d="M296.787,71.671c0.868-0.967,1.295-2.337,1.306-4.188c0.044-7.719-2.022-13.973-6.142-18.589
		c-4.169-4.666-9.851-7.052-16.889-7.092c-4.92-0.027-9.398,1.147-13.297,3.492c-3.903,2.35-6.979,5.687-9.142,9.917
		c-2.138,4.18-3.238,9.049-3.268,14.472c-0.049,8.573,2.36,15.437,7.16,20.401c4.81,4.978,11.431,7.525,19.677,7.572
		c0.056,0,0.113,0,0.169,0c2.704,0,5.512-0.368,8.347-1.095c2.904-0.745,5.702-1.886,8.334-3.403
		c2.991-1.771,4.515-3.883,4.529-6.276c0.008-1.416-0.418-2.621-1.264-3.584c-0.888-1.01-2.031-1.548-3.305-1.556
		c-0.006,0-0.013,0-0.013,0c-0.707,0-1.798,0.217-4.498,1.755c-2.117,1.174-4.121,2.114-5.955,2.79
		c-1.681,0.62-3.742,0.933-6.129,0.933c-0.051,0-0.103,0-0.155,0c-9.089-0.051-13.825-4.58-14.785-14.212l31.274,0.177
		C294.518,73.191,295.872,72.688,296.787,71.671z M261.83,64.021c0.641-3.632,1.977-6.509,3.985-8.572
		c2.328-2.391,5.344-3.542,9.294-3.52c3.825,0.022,6.683,1.172,8.738,3.516c1.803,2.059,2.877,4.986,3.205,8.719L261.83,64.021z"/>
	<path d="M334.9,43.928c-1.093-1.029-2.69-1.485-4.743-1.348l-1.461,0.096c-3.707,0.276-7.05,1.279-9.937,2.981
		c-1.255,0.741-2.394,1.63-3.414,2.663c0.008-1.743-0.554-3.174-1.672-4.255c-1.096-1.058-2.451-1.598-4.028-1.607
		c-1.619,0.007-3.027,0.498-4.196,1.509c-0.851,0.737-1.869,2.099-1.882,4.397l-0.247,43.553c-0.01,1.832,0.58,3.31,1.751,4.391
		c1.125,1.04,2.558,1.573,4.259,1.583c0.016,0,0.032,0,0.048,0c1.672,0,3.075-0.497,4.172-1.479
		c1.153-1.036,1.743-2.526,1.752-4.427l0.143-25.079c0.02-3.469,1.008-6.389,3.02-8.929c1.945-2.455,4.898-3.817,9.046-4.165
		l3.082-0.291c1.99-0.169,3.417-0.732,4.36-1.72c0.952-0.993,1.44-2.296,1.448-3.87C336.413,46.223,335.907,44.876,334.9,43.928z"/>
	<path d="M364.256,89.468l-2.816-0.208c-2.62-0.175-4.569-0.939-5.793-2.273c-1.233-1.342-1.858-3.706-1.858-7.027V55.303h9.71
		c1.561,0,2.858-0.452,3.855-1.343c1.04-0.93,1.59-2.205,1.59-3.686c0-1.528-0.537-2.844-1.553-3.807
		c-1.003-0.949-2.312-1.43-3.892-1.43h-9.71v-9.918c0-1.823-0.573-3.294-1.704-4.373c-1.107-1.056-2.541-1.591-4.26-1.591
		c-1.791,0-3.26,0.536-4.364,1.59c-1.131,1.077-1.704,2.549-1.704,4.373v9.918v10.267v24.242c0,6.319,1.485,11.163,4.413,14.398
		c2.939,3.25,7.467,5.125,13.459,5.574l2.792,0.207c0.379,0.03,0.742,0.045,1.09,0.045c1.645,0,2.949-0.339,3.965-1.027
		c0.954-0.648,2.091-1.893,2.091-4.146C369.567,93.191,369.051,89.878,364.256,89.468z"/>
	<path d="M386.279,49.961c0-1.822-0.573-3.293-1.704-4.374c-1.107-1.055-2.541-1.59-4.26-1.59c-1.708,0-3.149,0.526-4.284,1.564
		c-1.184,1.08-1.784,2.561-1.784,4.4v43.804c0,1.84,0.6,3.32,1.784,4.4c1.135,1.038,2.577,1.564,4.284,1.564
		c1.702,0,3.124-0.507,4.228-1.508c1.152-1.046,1.736-2.545,1.736-4.456V49.961z"/>
	<path d="M432.987,83.754c-0.777,0-1.619,0.232-2.576,0.711c-0.744,0.373-1.531,0.822-2.34,1.336l-0.048,0.032
		c-1.618,1.101-3.234,1.983-4.804,2.623c-1.469,0.6-3.282,0.904-5.388,0.904c-4.533,0-7.933-1.419-10.396-4.339
		c-2.506-2.971-3.777-7.327-3.777-12.949c0-5.632,1.276-10.048,3.794-13.125c2.463-3.01,5.858-4.473,10.379-4.473
		c2.095,0,3.864,0.301,5.258,0.893c1.52,0.648,3.155,1.54,4.858,2.653l0.153,0.089c0.013,0.007,0.14,0.081,0.547,0.375
		c0.464,0.339,1.023,0.672,1.659,0.988c0.804,0.403,1.601,0.607,2.368,0.607c1.37,0,2.551-0.548,3.416-1.586
		c0.795-0.955,1.198-2.148,1.198-3.547c0-1.321-0.361-2.544-1.073-3.637c-0.658-1.008-1.684-1.97-3.135-2.94
		c-2.097-1.492-4.566-2.642-7.34-3.419c-2.742-0.768-5.543-1.157-8.326-1.157c-5.087,0-9.663,1.205-13.6,3.583
		c-3.946,2.383-7.056,5.772-9.242,10.072c-2.162,4.251-3.259,9.172-3.259,14.627c0,5.45,1.06,10.332,3.15,14.512
		c2.122,4.245,5.187,7.571,9.108,9.885c3.898,2.302,8.416,3.469,13.429,3.469c2.921,0,5.867-0.426,8.758-1.266
		c2.901-0.843,5.431-1.99,7.524-3.41c1.521-1.04,2.562-1.998,3.185-2.931c0.684-1.027,1.03-2.186,1.03-3.443
		c0-1.4-0.403-2.593-1.199-3.548C435.435,84.302,434.289,83.754,432.987,83.754z"/>
	<path d="M486.475,89.434l-20.921-18.211L484.496,54.3c1.329-1.234,2.032-2.77,2.032-4.442c0-1.507-0.578-2.883-1.673-3.981
		c-1.096-1.093-2.472-1.671-3.979-1.671c-1.517,0-2.881,0.587-4.054,1.746l-21.745,19.926V49.481c0-2.289-0.97-3.656-1.785-4.4
		c-1.137-1.037-2.543-1.564-4.179-1.564c-1.707,0-3.149,0.527-4.284,1.564c-1.184,1.08-1.784,2.561-1.784,4.4v44.284
		c0,1.84,0.6,3.32,1.783,4.399c1.135,1.038,2.577,1.565,4.285,1.565c1.637,0,3.043-0.526,4.181-1.565
		c1.183-1.082,1.783-2.562,1.783-4.399V77.271l24.1,20.777c1.302,1.116,2.641,1.682,3.982,1.682c1.525,0,2.893-0.589,3.957-1.702
		c1.041-1.09,1.591-2.456,1.591-3.95C488.708,92.386,487.957,90.824,486.475,89.434z"/>
	<path d="M538.283,85.398c-0.898-1.008-2.048-1.541-3.325-1.541c-0.702,0-1.791,0.214-4.521,1.79
		c-2.124,1.194-4.135,2.15-5.976,2.841c-1.725,0.647-3.851,0.975-6.318,0.975c-9.153,0-13.944-4.535-14.962-14.23h31.466
		c1.778,0,3.141-0.519,4.054-1.543c0.867-0.975,1.288-2.354,1.288-4.213c0-7.762-2.113-14.038-6.281-18.654
		c-4.216-4.667-9.942-7.033-17.018-7.033c-4.952,0-9.443,1.207-13.348,3.586c-3.91,2.385-6.983,5.757-9.134,10.021
		c-2.126,4.215-3.204,9.117-3.204,14.57c0,8.62,2.461,15.507,7.315,20.47c4.863,4.977,11.534,7.5,19.825,7.5
		c2.771,0,5.65-0.387,8.556-1.149c2.916-0.766,5.723-1.929,8.361-3.469c2.994-1.797,4.513-3.926,4.513-6.329
		c0-1.421-0.433-2.629-1.287-3.59L538.283,85.398z M503.495,66.211c0.623-3.664,1.952-6.571,3.964-8.661
		c2.33-2.42,5.383-3.597,9.335-3.597c3.85,0,6.734,1.142,8.816,3.49c1.829,2.065,2.927,5.009,3.276,8.768H503.495z"/>
	<path d="M573.706,89.468l-2.815-0.208c-2.621-0.175-4.57-0.939-5.794-2.273c-1.232-1.342-1.858-3.706-1.858-7.027V55.303h9.71
		c1.561,0,2.858-0.452,3.855-1.344c1.04-0.93,1.59-2.205,1.59-3.686c0-1.528-0.536-2.844-1.552-3.807
		c-1.003-0.949-2.312-1.43-3.892-1.43h-9.71v-9.918c0-1.823-0.573-3.294-1.703-4.373c-1.107-1.056-2.54-1.591-4.26-1.591
		c-1.792,0-3.261,0.536-4.364,1.59c-1.131,1.077-1.704,2.549-1.704,4.373v9.918h-5.143c-1.651,0-2.995,0.482-3.995,1.43
		c-1.017,0.961-1.554,2.278-1.554,3.808c0,1.484,0.551,2.759,1.589,3.685c0.995,0.893,2.328,1.345,3.96,1.345h5.143v24.242
		c0,6.319,1.485,11.163,4.413,14.398c2.94,3.25,7.467,5.125,13.459,5.574l2.792,0.207c0.379,0.03,0.742,0.045,1.09,0.045
		c1.645,0,2.949-0.339,3.965-1.027c0.954-0.648,2.091-1.893,2.091-4.146C579.017,93.191,578.501,89.878,573.706,89.468z"/>
</g>
<g>
</g>
<g>
</g>
<g>
</g>
<g>
</g>
<g>
</g>
<g>
</g>
</svg>
