<?xml version="1.0" encoding="utf-8"?>
<!-- Generator: Adobe Illustrator 21.0.0, SVG Export Plug-In . SVG Version: 6.00 Build 0)  -->
<svg version="1.1" xmlns="http://www.w3.org/2000/svg" xmlns:xlink="http://www.w3.org/1999/xlink" x="0px" y="0px"
	 viewBox="0 0 1419.2 330.2" style="enable-background:new 0 0 1419.2 330.2;" xml:space="preserve">
<style type="text/css">
	.st0{fill:#FFFFFF;}
</style>
<g id="Camada_1">
</g>
<g id="grade">
	<g>
		<g>
			<path class="st0" d="M259.7,310.3c-51.7,0-99.9-27.8-125.8-72.6c-4-7-1.6-15.9,5.3-19.9c7-4,15.9-1.6,19.9,5.3
				c20.7,35.8,59.2,58.1,100.5,58.1c29.7,0,58-11.2,79.7-31.7c5.8-5.5,15.1-5.3,20.6,0.6c5.5,5.8,5.3,15.1-0.6,20.6
				C332.3,296.2,296.9,310.3,259.7,310.3z"/>
		</g>
		<path class="st0" d="M70.9,86.1h87.4c8,0,14.6,6.5,14.6,14.6l0,0c0,8-6.5,14.6-14.6,14.6H70.9c-8,0-14.6-6.5-14.6-14.6l0,0
			C56.3,92.6,62.9,86.1,70.9,86.1z"/>
		<path class="st0" d="M361.4,61.4C335,35.6,300.5,21,263.8,20c-0.5-0.1-1.1-0.1-1.6-0.1h-2.4c0,0,0,0,0,0l0,0H33.4
			c-8,0-14.6,6.5-14.6,14.6c0,8,6.5,14.6,14.6,14.6h226.4c30.6,0,59.4,11.8,81.2,33.2c2.8,2.8,6.5,4.2,10.2,4.2
			c3.8,0,7.5-1.5,10.4-4.4C367.2,76.3,367.1,67,361.4,61.4z"/>
		<path class="st0" d="M107.5,151.2h36.2c8,0,14.6,6.5,14.6,14.6l0,0c0,8-6.5,14.6-14.6,14.6h-36.2c-8,0-14.6-6.5-14.6-14.6l0,0
			C93,157.8,99.5,151.2,107.5,151.2z"/>
		<path class="st0" d="M311.2,175.2c-3.3-5.6-8.8-10.3-16.3-13.9c-7.1-3.5-16.6-6.5-29.1-9.4c-7.8-1.7-13.8-3.5-17.8-5.3
			c-4.4-1.9-6.4-3.8-7.3-5c-1.1-1.5-1.7-3.7-1.7-6.5c0-4.7,1.8-8.3,5.5-11.1c4.1-3.1,9.9-4.7,17.1-4.7c5.9,0,10.8,0.8,14.6,2.4
			c4.1,1.7,8.5,4.1,13.1,7.1c5.2,3.8,9.1,5.5,12.4,5.5c3.4,0,6.4-1.4,8.8-4.2c2.2-2.6,3.4-5.8,3.4-9.4c0-6.5-3.8-12.5-11.2-17.9
			c-5.4-3.7-11.6-6.7-18.6-8.7c-6.9-2-14.1-3.1-21.4-3.1c-10.2,0-19.5,1.9-27.7,5.6c-8.3,3.8-14.9,9.1-19.7,15.9
			c-4.9,6.9-7.3,14.9-7.3,23.8c0,11.5,4,20.9,11.9,27.7c7.4,6.4,19.1,11.3,35.7,15c8.9,1.9,15.7,3.8,20.2,5.6c4.9,2,7.1,3.8,8,5
			c1.2,1.5,1.8,3.6,1.8,6.4c0,4.8-1.8,8.1-5.6,10.6c-4.5,2.9-11.1,4.4-19.6,4.4c-7.2,0-13.2-0.9-17.8-2.6c-4.9-1.8-9.8-4.2-14.8-7.3
			c-5-3.3-8.8-4.9-12-4.9c-3.6,0-6.7,1.4-8.9,4.1c-2.2,2.5-3.3,5.6-3.3,9.3c0,3.8,1,7.2,2.9,9.9c1.7,2.4,4.3,4.9,8.1,7.4l0.1,0.1
			c6.1,3.9,13.1,6.9,20.9,9.1c7.7,2.1,16,3.2,24.5,3.2c16.4,0,29.9-3.9,40.1-11.5c10.7-8,16.1-18.7,16.1-31.8
			C316.2,187.7,314.5,180.7,311.2,175.2z"/>
		<path class="st0" d="M446,102.8c-2.6-2.7-6.1-4.2-10.5-4.2c0,0-0.1,0-0.1,0c-4.3,0-7.9,1.3-10.5,4c-2.7,2.7-4.1,6.2-4.1,10.4
			l-0.3,61.4c-0.1,10.3-2.9,18.3-8.7,24.4c-5.7,6-13,8.9-22.4,8.9c-0.1,0-0.2,0-0.3,0c-8.1,0-13.7-2.1-17.2-6.2
			c-3.6-4.3-5.4-11.4-5.3-21.1l0.4-67.7c0-4.2-1.3-7.6-3.8-10.3c-2.6-2.7-6.1-4.2-10.5-4.2c-4.4,0-8,1.3-10.7,4
			c-2.7,2.7-4.1,6.2-4.1,10.4l-0.4,68.2c-0.1,16.9,3.9,30,11.9,39c8.1,9.1,20.2,13.7,36,13.8c0.1,0,0.2,0,0.4,0
			c9.3,0,17.8-2.1,25.2-6.2c3.6-2,6.8-4.4,9.7-7.2c0.2,3.7,1.4,6.7,3.8,9.2c2.6,2.6,6,4,10.2,4c0,0,0.1,0,0.1,0
			c4.3,0,7.9-1.4,10.5-4.1c2.6-2.7,3.9-6,3.9-10l0.6-106C449.8,109,448.6,105.5,446,102.8L446,102.8z"/>
		<path class="st0" d="M559.9,107.7L559.9,107.7c-8.8-5.8-19.2-8.8-30.7-8.9c-10.3-0.1-19.4,2.2-27.2,6.7c-3.6,2.1-6.8,4.6-9.6,7.5
			c-0.1-3.9-1.4-7.2-3.8-9.8c-2.6-2.7-6.1-4.2-10.6-4.2c0,0-0.1,0-0.1,0c-4.3,0-7.9,1.3-10.5,4c-2.7,2.7-4.1,6.2-4.1,10.4
			l-0.9,151.1c0,4,1.3,7.5,4,10.1c2.7,2.7,6.2,4.1,10.6,4.1c0,0,0.1,0,0.1,0c4.3,0,7.8-1.3,10.4-3.9c2.6-2.6,4-6,4-10.2l0.3-44.8
			c2.8,2.9,5.9,5.4,9.5,7.6c7.7,4.6,16.8,7,27.1,7c0.1,0,0.3,0,0.4,0c11.5,0,21.7-2.8,30.5-8.3c8.8-5.5,15.7-13.5,20.7-23.6
			c4.8-10,7.3-21.8,7.4-35.1c0.1-13.3-2.3-25.2-7-35.4C575.6,121.7,568.7,113.5,559.9,107.7z M548.8,198.5
			c-5.7,7-13.6,10.4-24.2,10.3c-10.5-0.1-18.4-3.5-23.9-10.6c-5.7-7.3-8.6-18-8.5-31.8c0.1-13.8,3.1-24.4,8.9-31.5
			c5.6-6.9,13.4-10.2,23.8-10.2c0.1,0,0.2,0,0.3,0c10.5,0.1,18.4,3.6,24,10.9c5.8,7.5,8.7,18.2,8.6,31.8
			C557.7,180.8,554.7,191.3,548.8,198.5L548.8,198.5z"/>
		<path class="st0" d="M715.2,172.1c2.1-2.3,3.1-5.7,3.2-10.2c0.1-18.7-4.9-33.9-14.9-45.1c-10.1-11.3-23.9-17.1-41-17.2
			c-11.9-0.1-22.8,2.8-32.3,8.5c-9.5,5.7-16.9,13.8-22.2,24.1c-5.2,10.1-7.9,22-7.9,35.1c-0.1,20.8,5.7,37.5,17.4,49.5
			c11.7,12.1,27.8,18.3,47.8,18.4c0.1,0,0.3,0,0.4,0c6.6,0,13.4-0.9,20.3-2.7c7.1-1.8,13.8-4.6,20.2-8.3c7.3-4.3,11-9.4,11-15.2
			c0-3.4-1-6.4-3.1-8.7c-2.2-2.5-4.9-3.8-8-3.8c0,0,0,0,0,0c-1.7,0-4.4,0.5-10.9,4.3c-5.1,2.9-10,5.1-14.5,6.8
			c-4.1,1.5-9.1,2.3-14.9,2.3c-0.1,0-0.3,0-0.4,0c-22.1-0.1-33.6-11.1-35.9-34.5l75.9,0.4C709.7,175.8,713,174.5,715.2,172.1z
			 M630.4,153.5c1.6-8.8,4.8-15.8,9.7-20.8c5.7-5.8,13-8.6,22.6-8.5c9.3,0.1,16.2,2.8,21.2,8.5c4.4,5,7,12.1,7.8,21.2L630.4,153.5z"
			/>
		<path class="st0" d="M807.8,104.7c-2.7-2.5-6.5-3.6-11.5-3.3l-3.5,0.2c-9,0.7-17.1,3.1-24.1,7.2c-3,1.8-5.8,4-8.3,6.5
			c0-4.2-1.3-7.7-4.1-10.3c-2.7-2.6-6-3.9-9.8-3.9c-3.9,0-7.3,1.2-10.2,3.7c-2.1,1.8-4.5,5.1-4.6,10.7l-0.6,105.7
			c0,4.4,1.4,8,4.3,10.7c2.7,2.5,6.2,3.8,10.3,3.8c0,0,0.1,0,0.1,0c4.1,0,7.5-1.2,10.1-3.6c2.8-2.5,4.2-6.1,4.3-10.7l0.3-60.9
			c0-8.4,2.4-15.5,7.3-21.7c4.7-6,11.9-9.3,22-10.1l7.5-0.7c4.8-0.4,8.3-1.8,10.6-4.2c2.3-2.4,3.5-5.6,3.5-9.4
			C811.4,110.3,810.2,107,807.8,104.7z"/>
		<path class="st0" d="M879,215.3l-6.8-0.5c-6.4-0.4-11.1-2.3-14.1-5.5c-3-3.3-4.5-9-4.5-17.1v-59.9h23.6c3.8,0,6.9-1.1,9.4-3.3
			c2.5-2.3,3.9-5.4,3.9-8.9c0-3.7-1.3-6.9-3.8-9.2c-2.4-2.3-5.6-3.5-9.5-3.5h-23.6V83.3c0-4.4-1.4-8-4.1-10.6
			c-2.7-2.6-6.2-3.9-10.3-3.9c-4.3,0-7.9,1.3-10.6,3.9c-2.7,2.6-4.1,6.2-4.1,10.6v24.1v24.9v58.9c0,15.3,3.6,27.1,10.7,35
			c7.1,7.9,18.1,12.4,32.7,13.5l6.8,0.5c0.9,0.1,1.8,0.1,2.6,0.1c4,0,7.2-0.8,9.6-2.5c2.3-1.6,5.1-4.6,5.1-10.1
			C891.9,224.3,890.7,216.3,879,215.3z"/>
		<path class="st0" d="M932.5,119.4c0-4.4-1.4-8-4.1-10.6c-2.7-2.6-6.2-3.9-10.3-3.9c-4.1,0-7.6,1.3-10.4,3.8
			c-2.9,2.6-4.3,6.2-4.3,10.7v106.3c0,4.5,1.5,8.1,4.3,10.7c2.8,2.5,6.3,3.8,10.4,3.8c4.1,0,7.6-1.2,10.3-3.7
			c2.8-2.5,4.2-6.2,4.2-10.8V119.4z"/>
		<path class="st0" d="M1045.9,201.4c-1.9,0-3.9,0.6-6.3,1.7c-1.8,0.9-3.7,2-5.7,3.2l-0.1,0.1c-3.9,2.7-7.9,4.8-11.7,6.4
			c-3.6,1.5-8,2.2-13.1,2.2c-11,0-19.3-3.4-25.2-10.5c-6.1-7.2-9.2-17.8-9.2-31.4c0-13.7,3.1-24.4,9.2-31.9
			c6-7.3,14.2-10.9,25.2-10.9c5.1,0,9.4,0.7,12.8,2.2c3.7,1.6,7.7,3.7,11.8,6.4l0.4,0.2c0,0,0.3,0.2,1.3,0.9c1.1,0.8,2.5,1.6,4,2.4
			c2,1,3.9,1.5,5.7,1.5c3.3,0,6.2-1.3,8.3-3.9c1.9-2.3,2.9-5.2,2.9-8.6c0-3.2-0.9-6.2-2.6-8.8c-1.6-2.4-4.1-4.8-7.6-7.1
			c-5.1-3.6-11.1-6.4-17.8-8.3c-6.7-1.9-13.5-2.8-20.2-2.8c-12.4,0-23.5,2.9-33,8.7c-9.6,5.8-17.1,14-22.4,24.5
			c-5.3,10.3-7.9,22.3-7.9,35.5c0,13.2,2.6,25.1,7.6,35.2c5.2,10.3,12.6,18.4,22.1,24c9.5,5.6,20.4,8.4,32.6,8.4
			c7.1,0,14.2-1,21.3-3.1c7-2,13.2-4.8,18.3-8.3c3.7-2.5,6.2-4.9,7.7-7.1c1.7-2.5,2.5-5.3,2.5-8.4c0-3.4-1-6.3-2.9-8.6
			C1051.9,202.7,1049.1,201.4,1045.9,201.4z"/>
		<path class="st0" d="M1175.8,215.2L1125,171l46-41.1c3.2-3,4.9-6.7,4.9-10.8c0-3.7-1.4-7-4.1-9.7c-2.7-2.7-6-4.1-9.7-4.1
			c-3.7,0-7,1.4-9.8,4.2l-52.8,48.4v-39.8c0-5.6-2.4-8.9-4.3-10.7c-2.8-2.5-6.2-3.8-10.1-3.8c-4.1,0-7.6,1.3-10.4,3.8
			c-2.9,2.6-4.3,6.2-4.3,10.7v107.5c0,4.5,1.5,8.1,4.3,10.7c2.8,2.5,6.3,3.8,10.4,3.8c4,0,7.4-1.3,10.2-3.8
			c2.9-2.6,4.3-6.2,4.3-10.7v-40l58.5,50.4c3.2,2.7,6.4,4.1,9.7,4.1c3.7,0,7-1.4,9.6-4.1c2.5-2.6,3.9-6,3.9-9.6
			C1181.2,222.4,1179.4,218.6,1175.8,215.2z"/>
		<path class="st0" d="M1301.5,205.4c-2.2-2.4-5-3.7-8.1-3.7c-1.7,0-4.3,0.5-11,4.3c-5.2,2.9-10,5.2-14.5,6.9
			c-4.2,1.6-9.3,2.4-15.3,2.4c-22.2,0-33.9-11-36.3-34.5h76.4c4.3,0,7.6-1.3,9.8-3.7c2.1-2.4,3.1-5.7,3.1-10.2
			c0-18.8-5.1-34.1-15.2-45.3c-10.2-11.3-24.1-17.1-41.3-17.1c-12,0-22.9,2.9-32.4,8.7c-9.5,5.8-17,14-22.2,24.3
			c-5.2,10.2-7.8,22.1-7.8,35.4c0,20.9,6,37.6,17.8,49.7c11.8,12.1,28,18.2,48.1,18.2c6.7,0,13.7-0.9,20.8-2.8
			c7.1-1.9,13.9-4.7,20.3-8.4c7.3-4.4,11-9.5,11-15.4C1304.7,210.7,1303.6,207.7,1301.5,205.4L1301.5,205.4z M1217.1,158.8
			c1.5-8.9,4.7-16,9.6-21c5.7-5.9,13.1-8.7,22.7-8.7c9.3,0,16.3,2.8,21.4,8.5c4.4,5,7.1,12.2,8,21.3H1217.1z"/>
		<path class="st0" d="M1387.5,215.3l-6.8-0.5c-6.4-0.4-11.1-2.3-14.1-5.5c-3-3.3-4.5-9-4.5-17.1v-59.9h23.6c3.8,0,6.9-1.1,9.4-3.3
			c2.5-2.3,3.9-5.4,3.9-8.9c0-3.7-1.3-6.9-3.8-9.2c-2.4-2.3-5.6-3.5-9.4-3.5h-23.6V83.3c0-4.4-1.4-8-4.1-10.6
			c-2.7-2.6-6.2-3.9-10.3-3.9c-4.3,0-7.9,1.3-10.6,3.9c-2.7,2.6-4.1,6.2-4.1,10.6v24.1h-12.5c-4,0-7.3,1.2-9.7,3.5
			c-2.5,2.3-3.8,5.5-3.8,9.2c0,3.6,1.3,6.7,3.9,8.9c2.4,2.2,5.7,3.3,9.6,3.3h12.5v58.9c0,15.3,3.6,27.1,10.7,35
			c7.1,7.9,18.1,12.4,32.7,13.5l6.8,0.5c0.9,0.1,1.8,0.1,2.6,0.1c4,0,7.2-0.8,9.6-2.5c2.3-1.6,5.1-4.6,5.1-10.1
			C1400.4,224.3,1399.2,216.3,1387.5,215.3z"/>
	</g>
</g>
</svg>
