<svg id="Camada_1" data-name="Camada 1" xmlns="http://www.w3.org/2000/svg" viewBox="0 0 138 103.78"><defs><style>.cls-1{fill:#fff;}</style></defs><title>symbol_white</title><path class="cls-1" d="M56.07,47a5.21,5.21,0,0,0-5.21-5.21H19.62a5.21,5.21,0,0,0,0,10.41H50.86A5.21,5.21,0,0,0,56.07,47Z" transform="translate(-1 -18.11)"/><path class="cls-1" d="M50.86,70.26a5.21,5.21,0,0,0-5.21-5.21H32.71a5.21,5.21,0,0,0,0,10.41H45.65A5.21,5.21,0,0,0,50.86,70.26Z" transform="translate(-1 -18.11)"/><path class="cls-1" d="M94.27,84.81c-1.6,1-4,1.56-7,1.56a18.9,18.9,0,0,1-6.38-.92,29.58,29.58,0,0,1-5.3-2.6,8.23,8.23,0,0,0-4.27-1.74,4.1,4.1,0,0,0-3.2,1.45,4.93,4.93,0,0,0-1.16,3.31,6.09,6.09,0,0,0,1,3.56,11,11,0,0,0,2.89,2.66l0,0a26.8,26.8,0,0,0,7.47,3.24,33.43,33.43,0,0,0,8.77,1.13c5.87,0,10.69-1.38,14.35-4.1A13.57,13.57,0,0,0,107.28,81a14.24,14.24,0,0,0-1.79-7.4,13.53,13.53,0,0,0-5.83-5,48.15,48.15,0,0,0-10.41-3.35,36.47,36.47,0,0,1-6.37-1.89,6.45,6.45,0,0,1-2.61-1.77,3.81,3.81,0,0,1-.62-2.33,4.64,4.64,0,0,1,2-4,9.94,9.94,0,0,1,6.1-1.69,13.93,13.93,0,0,1,5.22.84A28.18,28.18,0,0,1,97.64,57c1.85,1.34,3.26,2,4.42,2a4.09,4.09,0,0,0,3.15-1.5,5.06,5.06,0,0,0,1.21-3.37c0-2.31-1.34-4.46-4-6.4a23,23,0,0,0-6.63-3.12,27.08,27.08,0,0,0-7.67-1.09,23.59,23.59,0,0,0-9.89,2,17.25,17.25,0,0,0-7,5.67,14.38,14.38,0,0,0-2.62,8.49,12.45,12.45,0,0,0,4.25,9.89c2.66,2.3,6.82,4.05,12.75,5.36a49.07,49.07,0,0,1,7.22,2,6.83,6.83,0,0,1,2.87,1.78A3.58,3.58,0,0,1,96.28,81,4.17,4.17,0,0,1,94.27,84.81Z" transform="translate(-1 -18.11)"/><path class="cls-1" d="M139,70A51.94,51.94,0,0,0,88.58,18.15a5.24,5.24,0,0,0-.6,0H6.21a5.21,5.21,0,0,0,0,10.41H87.13a41.48,41.48,0,0,1,14.27,80.41l-.07,0c-.58.21-1.16.41-1.75.59l-.25.08c-.53.16-1.06.31-1.6.46l-.41.11c-.49.12-1,.23-1.48.34l-.55.12c-.46.09-.92.17-1.38.25l-.65.11-1.34.17-.7.08c-.46,0-.93.08-1.4.11l-.65,0c-.68,0-1.37.05-2.06.05A41.63,41.63,0,0,1,51.18,90.72a5.21,5.21,0,0,0-9,5.21,52.08,52.08,0,0,0,45,26c.86,0,1.72,0,2.58-.07l.82-.06c.58,0,1.17-.08,1.75-.13l.89-.11c.56-.06,1.11-.13,1.66-.21l.83-.14c.57-.09,1.15-.19,1.71-.31l.7-.15c.61-.13,1.22-.27,1.83-.42l.53-.14q1-.26,2-.57l.32-.1q1.09-.34,2.17-.74l.1,0a51.78,51.78,0,0,0,17.74-11c.1-.1.18-.21.27-.31A51.73,51.73,0,0,0,139,70Z" transform="translate(-1 -18.11)"/></svg>