<?xml version="1.0" encoding="iso-8859-1"?>
<!-- Generator: Adobe Illustrator 21.0.0, SVG Export Plug-In . SVG Version: 6.00 Build 0)  -->
<svg version="1.0" xmlns="http://www.w3.org/2000/svg" xmlns:xlink="http://www.w3.org/1999/xlink" x="0px" y="0px"
	 viewBox="0 0 180 180" style="enable-background:new 0 0 180 180;" xml:space="preserve">
<g id="Camada_1">
</g>
<g id="grade">
	<g>
		<path style="fill:#5B439A;" d="M73.171,62.206c0-3.473-2.815-6.288-6.288-6.288H29.156c-3.473,0-6.288,2.815-6.288,6.288
			c0,3.473,2.815,6.288,6.288,6.288h37.727C70.356,68.493,73.171,65.678,73.171,62.206z"/>
		<path style="fill:#5B439A;" d="M66.883,90.315c0-3.473-2.815-6.288-6.288-6.288H44.963c-3.473,0-6.288,2.815-6.288,6.288
			c0,3.473,2.815,6.288,6.288,6.288h15.632C64.068,96.603,66.883,93.788,66.883,90.315z"/>
		<path style="fill:#00A5E3;" d="M119.309,107.888c-1.929,1.254-4.778,1.89-8.471,1.89c-3.099,0-5.69-0.372-7.699-1.107
			c-2.098-0.766-4.251-1.824-6.4-3.145c-2.152-1.434-3.794-2.103-5.162-2.103c-1.54,0-2.875,0.606-3.863,1.754
			c-0.931,1.083-1.403,2.43-1.403,4.003c0,1.645,0.426,3.091,1.264,4.295c0.734,1.055,1.874,2.104,3.486,3.207l0.053,0.035
			c2.617,1.68,5.652,2.997,9.022,3.913c3.34,0.908,6.902,1.369,10.589,1.369c7.086,0,12.916-1.667,17.328-4.955
			c4.626-3.448,6.971-8.073,6.971-13.746c0-3.539-0.725-6.544-2.157-8.935c-1.441-2.4-3.81-4.425-7.043-6.017
			c-3.046-1.501-7.157-2.825-12.575-4.052c-3.36-0.748-5.946-1.517-7.689-2.283c-1.895-0.833-2.762-1.626-3.155-2.144
			c-0.496-0.655-0.747-1.6-0.747-2.811c0-2.042,0.758-3.566,2.386-4.797c1.788-1.351,4.267-2.037,7.369-2.037
			c2.535,0,4.656,0.342,6.302,1.017c1.765,0.726,3.673,1.76,5.67,3.074c2.24,1.624,3.938,2.381,5.342,2.381
			c1.461,0,2.775-0.624,3.801-1.808c0.958-1.107,1.464-2.514,1.464-4.067c0-2.795-1.621-5.386-4.851-7.727
			c-2.324-1.616-5.019-2.884-8.013-3.768c-2.974-0.877-6.089-1.322-9.257-1.322c-4.413,0-8.434,0.817-11.95,2.43
			c-3.584,1.645-6.443,3.947-8.494,6.843c-2.101,2.965-3.166,6.415-3.166,10.253c0,4.985,1.726,9.003,5.129,11.941
			c3.209,2.775,8.242,4.894,15.396,6.477c3.85,0.837,6.784,1.654,8.721,2.427c2.116,0.845,3.051,1.639,3.461,2.155
			c0.52,0.656,0.773,1.563,0.773,2.771C121.74,105.352,120.968,106.811,119.309,107.888z"/>
		<path style="fill:#5B439A;" d="M173.333,90.001c0-33.962-27.16-61.68-60.897-62.623c-0.237-0.027-0.477-0.045-0.721-0.045h-1.031
			c-0.006,0-0.012,0-0.018,0v0H12.955c-3.473,0-6.288,2.815-6.288,6.288c0,3.473,2.815,6.288,6.288,6.288h97.73
			c27.612,0.009,50.073,22.476,50.073,50.091c0,21.56-13.693,39.982-32.839,47.028c-0.028,0.01-0.055,0.021-0.083,0.031
			c-0.696,0.255-1.401,0.492-2.11,0.716c-0.099,0.031-0.198,0.064-0.298,0.094c-0.639,0.198-1.286,0.379-1.936,0.551
			c-0.164,0.043-0.328,0.089-0.492,0.131c-0.589,0.15-1.185,0.284-1.782,0.412c-0.221,0.048-0.441,0.099-0.662,0.143
			c-0.551,0.111-1.109,0.206-1.666,0.298c-0.262,0.043-0.524,0.093-0.787,0.132c-0.536,0.08-1.076,0.143-1.617,0.206
			c-0.283,0.032-0.563,0.072-0.847,0.1c-0.56,0.056-1.127,0.093-1.693,0.129c-0.262,0.017-0.522,0.043-0.785,0.056
			c-0.825,0.041-1.656,0.063-2.491,0.063c-17.835,0-34.465-9.604-43.402-25.064c-1.737-3.005-5.582-4.035-8.59-2.297
			c-3.006,1.738-4.034,5.584-2.297,8.591c11.176,19.335,31.979,31.346,54.289,31.346c1.043,0,2.082-0.028,3.117-0.079
			c0.331-0.016,0.657-0.049,0.986-0.07c0.705-0.046,1.411-0.092,2.112-0.161c0.359-0.036,0.714-0.086,1.071-0.127
			c0.672-0.078,1.343-0.157,2.01-0.256c0.335-0.05,0.666-0.112,1-0.167c0.692-0.114,1.383-0.233,2.07-0.371
			c0.283-0.057,0.562-0.122,0.843-0.182c0.741-0.159,1.479-0.326,2.213-0.512c0.212-0.054,0.423-0.113,0.634-0.169
			c0.806-0.213,1.608-0.439,2.404-0.684c0.13-0.04,0.259-0.082,0.389-0.123c0.881-0.278,1.754-0.573,2.621-0.889
			c0.041-0.015,0.083-0.031,0.125-0.046c7.882-2.891,15.17-7.357,21.42-13.257c0.123-0.116,0.213-0.252,0.325-0.375
			C165.904,123.786,173.333,107.75,173.333,90.001z"/>
	</g>
	<g>
	</g>
	<g>
	</g>
	<g>
	</g>
	<g>
	</g>
	<g>
	</g>
	<g>
	</g>
</g>
</svg>
